<?xml version="1.0" encoding="utf-8"?>
<svg version="1.1" xmlns:xlink="http://www.w3.org/1999/xlink" width="42px" height="42px" xmlns="http://www.w3.org/2000/svg">
  <g transform="matrix(1 0 0 1 -4353 -107 )">
    <path d="M 4374 107  C 4385.76 107  4395 116.24  4395 128  C 4395 139.76  4385.76 149  4374 149  C 4362.24 149  4353 139.76  4353 128  C 4353 116.24  4362.24 107  4374 107  Z " fill-rule="nonzero" fill="#ffffff" stroke="none" />
    <path d="M 4374 107.5  C 4385.48 107.5  4394.5 116.52  4394.5 128  C 4394.5 139.48  4385.48 148.5  4374 148.5  C 4362.52 148.5  4353.5 139.48  4353.5 128  C 4353.5 116.52  4362.52 107.5  4374 107.5  Z " stroke-width="1" stroke="#797979" fill="none" />
  </g>
</svg>