<?xml version="1.0" encoding="utf-8"?>
<svg version="1.1" xmlns:xlink="http://www.w3.org/1999/xlink" width="170px" height="170px" xmlns="http://www.w3.org/2000/svg">
  <g transform="matrix(1 0 0 1 -284 -1832 )">
    <path d="M 369 1832  C 416.6 1832  454 1869.4  454 1917  C 454 1964.6  416.6 2002  369 2002  C 321.4 2002  284 1964.6  284 1917  C 284 1869.4  321.4 1832  369 1832  Z " fill-rule="nonzero" fill="#ffffff" stroke="none" />
    <path d="M 369 1832.5  C 416.32 1832.5  453.5 1869.68  453.5 1917  C 453.5 1964.32  416.32 2001.5  369 2001.5  C 321.68 2001.5  284.5 1964.32  284.5 1917  C 284.5 1869.68  321.68 1832.5  369 1832.5  Z " stroke-width="1" stroke="#797979" fill="none" />
  </g>
</svg>