<?xml version="1.0" encoding="utf-8"?>
<svg version="1.1" xmlns:xlink="http://www.w3.org/1999/xlink" width="88px" height="88px" xmlns="http://www.w3.org/2000/svg">
  <g transform="matrix(1 0 0 1 -454 -1752 )">
    <path d="M 498 1752  C 522.64 1752  542 1771.36  542 1796  C 542 1820.64  522.64 1840  498 1840  C 473.36 1840  454 1820.64  454 1796  C 454 1771.36  473.36 1752  498 1752  Z " fill-rule="nonzero" fill="#ffffff" stroke="none" />
    <path d="M 498 1752.5  C 522.36 1752.5  541.5 1771.64  541.5 1796  C 541.5 1820.36  522.36 1839.5  498 1839.5  C 473.64 1839.5  454.5 1820.36  454.5 1796  C 454.5 1771.64  473.64 1752.5  498 1752.5  Z " stroke-width="1" stroke="#797979" fill="none" />
  </g>
</svg>