<?xml version="1.0" encoding="utf-8"?>
<svg version="1.1" xmlns:xlink="http://www.w3.org/1999/xlink" width="136px" height="136px" xmlns="http://www.w3.org/2000/svg">
  <g transform="matrix(1 0 0 1 -109 -1789 )">
    <path d="M 177 1789  C 215.08 1789  245 1818.92  245 1857  C 245 1895.08  215.08 1925  177 1925  C 138.92 1925  109 1895.08  109 1857  C 109 1818.92  138.92 1789  177 1789  Z " fill-rule="nonzero" fill="#ffffff" stroke="none" />
    <path d="M 177 1789.5  C 214.8 1789.5  244.5 1819.2  244.5 1857  C 244.5 1894.8  214.8 1924.5  177 1924.5  C 139.2 1924.5  109.5 1894.8  109.5 1857  C 109.5 1819.2  139.2 1789.5  177 1789.5  Z " stroke-width="1" stroke="#797979" fill="none" />
  </g>
</svg>