<?xml version="1.0" encoding="utf-8"?>
<svg version="1.1" xmlns:xlink="http://www.w3.org/1999/xlink" width="63px" height="63px" xmlns="http://www.w3.org/2000/svg">
  <g transform="matrix(1 0 0 1 -1516 -1441 )">
    <path d="M 1547.5 1441  C 1565.14 1441  1579 1454.86  1579 1472.5  C 1579 1490.14  1565.14 1504  1547.5 1504  C 1529.86 1504  1516 1490.14  1516 1472.5  C 1516 1454.86  1529.86 1441  1547.5 1441  Z " fill-rule="nonzero" fill="#ffffff" stroke="none" />
    <path d="M 1547.5 1441.5  C 1564.86 1441.5  1578.5 1455.14  1578.5 1472.5  C 1578.5 1489.86  1564.86 1503.5  1547.5 1503.5  C 1530.14 1503.5  1516.5 1489.86  1516.5 1472.5  C 1516.5 1455.14  1530.14 1441.5  1547.5 1441.5  Z " stroke-width="1" stroke="#797979" fill="none" />
  </g>
</svg>