<?xml version="1.0" encoding="utf-8"?>
<svg version="1.1" xmlns:xlink="http://www.w3.org/1999/xlink" width="51px" height="51px" xmlns="http://www.w3.org/2000/svg">
  <g transform="matrix(1 0 0 1 -658 -1364 )">
    <path d="M 683.5 1364  C 697.78 1364  709 1375.22  709 1389.5  C 709 1403.78  697.78 1415  683.5 1415  C 669.22 1415  658 1403.78  658 1389.5  C 658 1375.22  669.22 1364  683.5 1364  Z " fill-rule="nonzero" fill="#ffffff" stroke="none" />
    <path d="M 683.5 1364.5  C 697.5 1364.5  708.5 1375.5  708.5 1389.5  C 708.5 1403.5  697.5 1414.5  683.5 1414.5  C 669.5 1414.5  658.5 1403.5  658.5 1389.5  C 658.5 1375.5  669.5 1364.5  683.5 1364.5  Z " stroke-width="1" stroke="#797979" fill="none" />
  </g>
</svg>